/* XPM */
static char *_c9a964d84704c0c8ac771bd1b177b9aiyfUeTxgLZcBbyXK[] = {
/* columns rows colors chars-per-pixel */
"50 46 125 2 ",
"   c None",
".  c black",
"X  c #010000",
"o  c #020000",
"O  c #030000",
"+  c #050000",
"@  c #070000",
"#  c #090000",
"$  c #0A0000",
"%  c #0B0000",
"&  c #0D0000",
"*  c #0E0000",
"=  c #0F0000",
"-  c #100000",
";  c #110000",
":  c #120000",
">  c #130000",
",  c #140000",
"<  c #150000",
"1  c #160000",
"2  c #170000",
"3  c #180000",
"4  c #190000",
"5  c #1A0000",
"6  c #1B0000",
"7  c #1D0000",
"8  c #1E0000",
"9  c #1F0000",
"0  c #200000",
"q  c #230000",
"w  c #240000",
"e  c #250000",
"r  c #260000",
"t  c #280000",
"y  c #2C0000",
"u  c #310000",
"i  c #320000",
"p  c #370000",
"a  c #3B0000",
"s  c #3C0000",
"d  c #3D0000",
"f  c #3E0000",
"g  c #3F0000",
"h  c #400000",
"j  c #410000",
"k  c #460000",
"l  c #480000",
"z  c #490000",
"x  c #4D0000",
"c  c #4E0000",
"v  c #530000",
"b  c #550000",
"n  c #560000",
"m  c #590000",
"M  c #5A0000",
"N  c #5E0000",
"B  c #610000",
"V  c #670000",
"C  c #6C0000",
"Z  c #6E0000",
"A  c #730000",
"S  c #740000",
"D  c #760000",
"F  c #7B0000",
"G  c #7F0000",
"H  c #850000",
"J  c #860000",
"K  c #8A0000",
"L  c #8C0000",
"P  c #8D0000",
"I  c #8F0000",
"U  c #900000",
"Y  c #950000",
"T  c #960000",
"R  c #9C0000",
"E  c #9E0000",
"W  c #A10000",
"Q  c #A20000",
"!  c #A40000",
"~  c #A70000",
"^  c #AA0000",
"/  c #AF0000",
"(  c #B10000",
")  c #B20000",
"_  c #B30000",
"`  c #B40000",
"'  c #B50000",
"]  c #B60000",
"[  c #B70000",
"{  c #BA0000",
"}  c #BB0000",
"|  c #BD0000",
" . c #BF0000",
".. c #C00000",
"X. c #C20000",
"o. c #C30000",
"O. c #C40000",
"+. c #C70000",
"@. c #C80000",
"#. c #C90000",
"$. c #CA0000",
"%. c #CB0000",
"&. c #CC0000",
"*. c #CD0000",
"=. c #CE0000",
"-. c #CF0000",
";. c #D10000",
":. c #D20000",
">. c #D30000",
",. c #D50000",
"<. c #D70000",
"1. c #DA0000",
"2. c #DC0000",
"3. c #DD0000",
"4. c #DE0000",
"5. c #E00000",
"6. c #E10000",
"7. c #E20000",
"8. c #E30000",
"9. c #E50000",
"0. c #E60000",
"q. c #E70000",
"w. c #E80000",
"e. c #E90000",
"r. c #EA0000",
/* pixels */
"                    . . . . . . .                                 . . . . . . .                     ",
"              . . . . * 5 0 9 > . . . .                     . . . . > 9 0 5 * . . . .               ",
"            . . > c P [ $.;.$.} Y m 9 . .                 . . 5 m Y } =.=.$.[ P l > . .             ",
"        . . @ v [ 6.w.w.0.0.w.w.w.0.X.V * . .         . . * V X.0.w.w.w.0.w.w.w.6.[ v @ . .         ",
"      . . < K 4.w.0.0.0.0.0.0.0.0.0.w.0.W 0 . .     . . e W 0.0.0.0.0.0.0.0.0.0.w.w.6.K < . .       ",
"      . < E w.w.0.0.0.0.0.0.0.0.0.0.0.0.w.[ e . . . . e [ 0.0.0.0.0.0.0.0.0.0.0.0.0.w.w.E < .       ",
"    . @ P w.0.0.0.0.0.0.0.0.0.0.0.0.0.0.0.w.^ < . . < ~ w.0.0.0.0.0.0.0.0.0.0.0.0.0.0.0.w.P @ .     ",
"  . . b 6.0.0.0.0.0.0.0.0.0.0.0.0.0.0.0.0.0.0.S . . S w.0.0.0.0.0.0.0.0.0.0.0.0.0.0.0.0.0.6.b . .   ",
"  . > [ w.0.0.0.0.0.0.0.0.0.0.0.0.0.0.0.0.0.w.=.e e =.w.0.0.0.0.0.0.0.0.0.0.0.0.0.0.0.0.0.w.[ < .   ",
"  . c 6.0.0.0.0.0.0.0.0.0.0.0.0.0.0.0.0.0.0.0.w.J J 0.0.0.0.0.0.0.0.0.0.0.0.0.0.0.0.0.0.0.0.6.c .   ",
". . P w.0.0.0.0.0.0.0.0.0.0.0.0.0.0.0.0.0.0.0.0.4.4.0.0.0.0.0.0.0.0.0.0.0.0.0.0.0.0.0.0.0.0.w.P . . ",
". * [ w.0.0.0.0.0.0.0.0.0.0.0.0.0.0.0.0.0.0.0.0.0.0.0.0.0.0.0.0.0.0.0.0.0.0.0.0.0.0.0.0.0.0.0.[ * . ",
". 5 +.w.0.0.0.0.0.0.0.0.0.0.0.0.0.0.0.0.0.0.0.0.0.0.0.0.0.0.0.0.0.0.0.0.0.0.0.0.0.0.0.0.0.0.w.+.5 . ",
". 9 =.w.0.0.0.0.0.0.0.0.0.0.0.0.0.0.0.0.0.0.0.0.0.0.0.0.0.0.0.0.0.0.0.0.0.0.0.0.0.0.0.0.0.0.w.=.9 . ",
". 5 $.w.0.0.0.0.0.0.0.0.0.0.0.0.0.0.0.0.0.0.0.0.0.0.0.0.0.0.0.0.0.0.0.0.0.0.0.0.0.0.0.0.0.0.0.$.5 . ",
". >  .w.0.0.0.0.0.0.0.0.0.0.0.0.0.0.0.0.0.0.0.0.0.0.0.0.0.0.0.0.0.0.0.0.0.0.0.0.0.0.0.0.0.0.w. .> . ",
". @ ^ w.0.0.0.0.0.0.0.0.0.0.0.0.0.0.0.0.0.0.0.0.0.0.0.0.0.0.0.0.0.0.0.0.0.0.0.0.0.0.0.0.0.0.w.W @ . ",
". . H w.0.0.0.0.0.0.0.0.0.0.0.0.0.0.0.0.0.0.0.0.0.0.0.0.0.0.0.0.0.0.0.0.0.0.0.0.0.0.0.0.0.0.w.F . . ",
"  . l 6.0.0.0.0.0.0.0.0.0.0.0.0.0.0.0.0.0.0.0.0.0.0.0.0.0.0.0.0.0.0.0.0.0.0.0.0.0.0.0.0.0.0.4.a .   ",
"  . < X.w.0.0.0.0.0.0.0.0.0.0.0.0.0.0.0.0.0.0.0.0.0.0.0.0.0.0.0.0.0.0.0.0.0.0.0.0.0.0.0.0.w./ * .   ",
"  . . A w.0.0.0.0.0.0.0.0.0.0.0.0.0.0.0.0.0.0.0.0.0.0.0.0.0.0.0.0.0.0.0.0.0.0.0.0.0.0.0.0.6.m . .   ",
"    . 9 X.w.0.0.0.0.0.0.0.0.0.0.0.0.0.0.0.0.0.0.0.0.0.0.0.0.0.0.0.0.0.0.0.0.0.0.0.0.0.0.w.^ > .     ",
"    . . N 6.0.0.0.0.0.0.0.0.0.0.0.0.0.0.0.0.0.0.0.0.0.0.0.0.0.0.0.0.0.0.0.0.0.0.0.0.0.0.,.s . .     ",
"      . * Y w.0.0.0.0.0.0.0.0.0.0.0.0.0.0.0.0.0.0.0.0.0.0.0.0.0.0.0.0.0.0.0.0.0.0.0.0.0.C . .       ",
"        . 9 [ w.0.0.0.0.0.0.0.0.0.0.0.0.0.0.0.0.0.0.0.0.0.0.0.0.0.0.0.0.0.0.0.0.0.0.0.P % .         ",
"        . . u X.w.0.0.0.0.0.0.0.0.0.0.0.0.0.0.0.0.0.0.0.0.0.0.0.0.0.0.0.0.0.0.0.0.0.E < .           ",
"          . . a $.w.0.0.0.0.0.0.0.0.0.0.0.0.0.0.0.0.0.0.0.0.0.0.0.0.0.0.0.0.0.0.w.W < . .           ",
"            . . s $.w.0.0.0.0.0.0.0.0.0.0.0.0.0.0.0.0.0.0.0.0.0.0.0.0.0.0.0.0.w.E 5 . .             ",
"              . . p X.w.0.0.0.0.0.0.0.0.0.0.0.0.0.0.0.0.0.0.0.0.0.0.0.0.0.w.0.Y < . .               ",
"                . . y _ w.0.0.0.0.0.0.0.0.0.0.0.0.0.0.0.0.0.0.0.0.0.0.0.w.6.J * . .                 ",
"                  . . 0 ~ 0.0.0.0.0.0.0.0.0.0.0.0.0.0.0.0.0.0.0.0.0.0.w.4.S % .                     ",
"                    . . < U 0.0.0.0.0.0.0.0.0.0.0.0.0.0.0.0.0.0.0.0.w.1.B . .                       ",
"                      . . % F 6.w.0.0.0.0.0.0.0.0.0.0.0.0.0.0.0.0.w.=.c . .                         ",
"                          . @ V 1.0.0.0.0.0.0.0.0.0.0.0.0.0.0.0.w.+.s . .                           ",
"                            . . b ,.w.0.0.0.0.0.0.0.0.0.0.0.0.w.} p . .                             ",
"                              . . k =.w.0.0.0.0.0.0.0.0.0.0.w._ e . .                               ",
"                                . . j $.w.0.0.0.0.0.0.0.0.w._ e . .                                 ",
"                                  . . s $.w.0.0.0.0.0.0.w._ 0 . .                                   ",
"                                    . . j $.w.0.0.0.0.w.} y . .                                     ",
"                                      . . k ;.w.0.0.w.+.u . .                                       ",
"                                        . . b 1.0.w.;.j . .                                         ",
"                                          . . C 6.6.N . .                                           ",
"                                            . % U J @ .                                             ",
"                                              . > * .                                               ",
"                                              . . . .                                               ",
"                                                . .                                                 "
};
