/* XPM */
static char *_21efa9e38874efd91296a700a1257a3rmJZmW8hZr7wJkce[] = {
/* columns rows colors chars-per-pixel */
"50 71 240 2 ",
"   c None",
".  c #160614",
"X  c #1B0615",
"o  c #1C0916",
"O  c #1D0B1A",
"+  c #1A0818",
"@  c #1D111D",
"#  c #210716",
"$  c #230916",
"%  c #2A0B16",
"&  c #230C1B",
"*  c #2B0D1A",
"=  c #330D17",
"-  c #3A0D17",
";  c #340E1A",
":  c #3B0E19",
">  c #24111D",
",  c #2D121C",
"<  c #2A1517",
"1  c #35121B",
"2  c #3B141C",
"3  c #3C1B1D",
"4  c #31131A",
"5  c #342F19",
"6  c #2D1B22",
"7  c #291321",
"8  c #351D24",
"9  c #3D1C22",
"0  c #321724",
"q  c #38262B",
"w  c #332E2B",
"e  c #450F17",
"r  c #420F19",
"t  c #4B0C19",
"y  c #540D16",
"u  c #5C0D16",
"i  c #4D1117",
"p  c #44141B",
"a  c #4B141A",
"s  c #431A1D",
"d  c #4C1C1D",
"f  c #4C1716",
"g  c #541316",
"h  c #5C1316",
"j  c #5D1917",
"k  c #531519",
"l  c #5B151A",
"z  c #541B1B",
"x  c #5B1C1A",
"c  c #541817",
"v  c #750F0F",
"b  c #6E120F",
"n  c #72140F",
"m  c #751A0F",
"M  c #7B1A0E",
"N  c #680F12",
"B  c #700F11",
"V  c #641413",
"C  c #6A1411",
"Z  c #641A16",
"A  c #6B1C14",
"S  c #621C19",
"D  c #69171A",
"F  c #731C18",
"G  c #771914",
"H  c #46221E",
"J  c #4E221F",
"K  c #48261A",
"L  c #55231E",
"P  c #5C231D",
"I  c #5A291F",
"U  c #45371A",
"Y  c #5A391C",
"T  c #63231B",
"R  c #6A241A",
"E  c #642A1E",
"W  c #6B2B1D",
"Q  c #6A2217",
"!  c #752B1A",
"~  c #792516",
"^  c #6E311E",
"/  c #6F3A1E",
"(  c #73331D",
")  c #7C3C1E",
"_  c #7C351A",
"`  c #79200F",
"'  c #431D22",
"]  c #4A1C22",
"[  c #591D23",
"{  c #452322",
"}  c #4B2421",
"|  c #452A24",
" . c #4C2A23",
".. c #432A2A",
"X. c #522521",
"o. c #542B22",
"O. c #5A2B22",
"+. c #542D2B",
"@. c #4E332A",
"#. c #4F3427",
"$. c #543224",
"%. c #5B3324",
"&. c #5D3A26",
"*. c #53342B",
"=. c #5C3B2A",
"-. c #5A322C",
";. c #473B3A",
":. c #543934",
">. c #522F30",
",. c #622B21",
"<. c #6B2A22",
"1. c #643425",
"2. c #6C3A25",
"3. c #693D2A",
"4. c #653927",
"5. c #733C25",
"6. c #793D24",
"7. c #773826",
"8. c #71362F",
"9. c #474319",
"0. c #5C4328",
"q. c #5D4935",
"w. c #64432A",
"e. c #65482C",
"r. c #6A472B",
"t. c #754325",
"y. c #7C4324",
"u. c #7B4D2B",
"i. c #77482A",
"p. c #6C512E",
"a. c #685127",
"s. c #7A552C",
"d. c #664935",
"f. c #6D5431",
"g. c #6E5934",
"h. c #7B5432",
"j. c #725C34",
"k. c #7E5A32",
"l. c #755835",
"z. c #7C4836",
"x. c #7B663B",
"c. c #3F5044",
"v. c #755843",
"b. c #67554A",
"n. c #4E6955",
"m. c #7D7344",
"M. c #881916",
"N. c #9A1A13",
"B. c #A51B13",
"V. c #B7150F",
"C. c #82240E",
"Z. c #8C251B",
"A. c #842817",
"S. c #972418",
"D. c #873718",
"F. c #9A351A",
"G. c #B62715",
"H. c #BA3A19",
"J. c #A7301C",
"K. c #851E22",
"L. c #883A26",
"P. c #8E3326",
"I. c #B23122",
"U. c #C6160B",
"Y. c #C83A17",
"T. c #DF320E",
"R. c #86431E",
"E. c #91441D",
"W. c #92561C",
"Q. c #B8451C",
"!. c #BD511D",
"~. c #95621F",
"^. c #884728",
"/. c #964726",
"(. c #83532D",
"). c #855B2C",
"_. c #895527",
"`. c #97582A",
"'. c #835732",
"]. c #8D4F3A",
"[. c #A84C23",
"{. c #B84824",
"}. c #A7562A",
"|. c #B65C27",
" X c #AB5332",
".X c #8A642C",
"XX c #896329",
"oX c #956C2B",
"OX c #956329",
"+X c #886835",
"@X c #986736",
"#X c #8B723C",
"$X c #877138",
"%X c #957937",
"&X c #9A762A",
"*X c #AA6526",
"=X c #A4782D",
"-X c #A46637",
";X c #A27538",
":X c #BF6629",
">X c #CA4617",
",X c #DA5513",
"<X c #DC6715",
"1X c #EA7415",
"2X c #EC6F0E",
"3X c #C55723",
"4X c #C04A25",
"5X c #D86823",
"6X c #C5652A",
"7X c #E36D23",
"8X c #E47A26",
"9X c #E8580C",
"0X c #8A7C42",
"qX c #837744",
"wX c #8D6941",
"eX c #A1724E",
"rX c #569172",
"tX c #96843A",
"yX c #A2923E",
"uX c #DC8A1B",
"iX c #F5890E",
"pX c #EC8B13",
"aX c #CF8737",
"sX c #EA8A27",
"dX c #ED912D",
"fX c #E6A631",
"gX c #8B854A",
"hX c #978747",
"jX c #959854",
"kX c #949252",
"lX c #A58544",
"zX c #AB934C",
"xX c #AC9A57",
"cX c #B69A4E",
"vX c #B4A357",
"bX c #B7AA61",
"nX c #B8AD79",
"mX c #62BC96",
"MX c #67AA87",
"NX c #5CB28C",
/* pixels */
"                                                                                            S.U.    ",
"                                            T.                                            P.S.V.    ",
"                                          U.U.V.J.                                      /.~ Z.G.    ",
"                                          G.N.M.N.J.                                  -X7.7.K.B.    ",
"                                          B.M.F Q Z.Q.                              eX/.6.7.A.J.    ",
"                                          N.G ~ ! ! Z.Q.                          ]././.'.6._ Z.    ",
"                                            G F ! D.E.F.{.                      eX/.@X@X'.(.P.      ",
"                                            F D ! /.`.[.[.6XsX        dXdXdXaX6X^.`.%X#X.X].L.      ",
"                                            D <.( R.`.*X*X|.5X8X8XsX7X7X8X8X|.^.'.#XhXhX0X`.F.      ",
"                                              D ~ R.OX=X=X*X6X3X{.3X3X{.{.[.7.u.wX+XqXkXhX@X[.      ",
"                                              F ! R.&X=X*X@X=X`.L.L.L.P.L.^.u.l.x.x.m.kXjXhX}.      ",
"                                              G ) W.oX&X.Xs.s.s..X(.i.1.5.).$Xx.d.x.m.gXjXkX-X      ",
"                                              F s.OX&XtXXXXXk.t.%X).u.3.r.h.#X#Xx.jXgXm.#X0XaX!.    ",
"                                                #XOXXXXXs.tXyX$XoX).t.2.d.u.+XtXgX%XgXgXgXhXfXuX    ",
"                                                tXW._.XX~.s.s.x.%X.Xi.).+X'.#X$XK w #.:.l.lXfXsX    ",
"                                                  W.~.s.P 5 < w a.oX^.).+X'.#Xa.< @ 5 5 l.(.|.5X    ",
"                                                  ! ( / H U < O U y.6.^.'.k.h.0.5 5 9.w.+Xz.^.4X4X  ",
"                                                  l Q R.) Y 9.U Y ,.,.2.2.2.4.w.s.p.p.r.-.,.<.J.Y.  ",
"                                                  g Z S / t.t.s._.T T ,.1.4.2.u.k.4.-.[ ] ] [ M.H.  ",
"                                                  e r p c x P E / R.<.8.wXwXk.#Xh.3.-.} ' X.O.Z.>XF.",
"                                                ] d ' p p z P W y.OXOXy.(.z.%XjXqXk.d.=.*.*.<.F.H.  ",
"                                                +.] } {  .O.1.t._.&X%X$XL.(.hXhXgXx.d.d.q.d.5.F.J.  ",
"                                                b.>.@.#.0.e.2.) _.`.oXoXi.(.$X#X$X+Xr.-.*.+.,.F.    ",
"                                              L.v.q.q.*.@.O.E ( ) ) ) ( T R 2.t.2.1.+.} { } ,.B.    ",
"                                            L.I.kXb.:.>.{ s z P j j Z Q ! ^ / P y ] 2 9 0 ]         ",
"                                          K.P.I.].:.-.' 3 1 3 2 e i g c z L z a r : ; ; '           ",
"                                      ' t [ K.H.-.6 ' : 4 4 % % % - - - ; ; ; ; ; * * ; D           ",
"                          nXb.] 2 ; & & 0 ..L.^.7 + & * 1 % $ $ $ % # # # # $ $ & & * t H.          ",
"                        z.:.0 & & & & $ q 1.].H + . . o # $ $ $ $ # $ # + + X X + # & N Y.          ",
"                      ' 0 7 & 7 & & & & L ,...O + . . . . . o O O $ + + # X X X + O * [ M.          ",
"                      8 & & & & & & & s d 0 O O @ o o o o . . . . . . . . . . X O + O * u           ",
"                    :.> & & & & & & * P 8 > 6 | ..q 4 * > $ $ O o o o . . O O @ > @ @ 9 F.          ",
"                    9 @ O & & & & $ s { q |  .s p f e r = % $ # $ $ * 4 9 { { | @.@.| ,.Y.          ",
"                  >.& O O # & & & ; X.|  .d g h S x x P z p 1 * ; 4 3 o.$.&.w.=.w.3.7.Q.9X          ",
"                d.0 & @ @ O & $ & {  .H p j Q Q Q R T T P L d d } X.%.&.&.e.e.e.w.r.^.>X2X          ",
"                ' & O O O O O $ * o.d f f j Q Q T E E T E P P I o.O.r.w.f.j.f.g.f.u.}.<X2X2X        ",
"              :.& & O O o O O $ ' X.k g k x x S x L P P E I O.O.O.%.r.r.p.f.j.x.j.s.}.1XiX<X        ",
"            b.0 & & O O O o o & } c g h g l c P T x L L L o.I o.O.1.r.f.p.f.j.j.l.h.|.1XiXpX        ",
"            q & O O O O o O o < X.a h h l j c x P T L L d } } {  .%.e.j.p.p.g.j.j.k.}.<X2XiX        ",
"          ;.7 @ @ + O O O o o 3 z y l V h Z c c P W W E P E L L J %.&.w.f.0.=.e.p.p.`.3X2X1X        ",
"          q & O O O O O + O > J k h l V l V l l T R ^ ( ^ E E I o.O.&.w.p.e.w.&.w.3.y.[.,X,X        ",
"        ;.7 @ + O o o $ O # 3 P u h l V Z Z Z S P T E E T L L L L %.0.4.w.e.e.0.$.Y 2.L.>XY.        ",
"        0 & O O O O O o o 4 I h h u V S A Q A S S T T P P L K L J &.4.Y w.0.&.$.$.$.%.5./.Q.        ",
"          7 O O O o O O 3 } J h V V V D Z A S S S S x x c c f f J o.I $.$.$.#.} H L o.1.L.Y.        ",
"          * O O O O < | $.q d V Z C Z Z Z j l x x c c c z P L L I I  .J K  .| H H } } P Z.Y.        ",
"            & O @ 3 $.@.4 4 c C V C V V V j j l g a p p f d L L X.K  .H H  .{ s ' } d L Z.G.        ",
"            6 7  .&.| > > 9 l b C A V V h j j g a p a f p s f H H H H } { 3 3 3 3 ' J [ Z.G.        ",
"            n.-.$.8 7 @ > s V C n A V g l g g l l c f f p p s s s 3 3 3 3 3 4 3 2 s J x Z.          ",
"          mXrX' * @ @ @ 7 ] N N C A V f e f g g z z a a f d d s 3 4 , , * , * 0 ; 9 ' l G           ",
"          NXc.7 @ > & O 0 u D B C C V f e i p i g f a : p d K s 2 , , % $ & & * 0 1 r [ G           ",
"        NXn.6 @ & & @ & a u V C C V V g c g e - e e p 2 : s f 3 3 * & o + & > * ; 1 9 u             ",
"        NXw & & @ @ O 7 a u V V V V V V h g i r p p p p 1 1 2 1 4 # X . X + & * ; 1 t D             ",
"      MXn.& & @ @ > O & a h u V u C V h i e a e r : 2 p ; * , , 4 $ . . + O & * * 1 ]               ",
"      gX..& & > O O O $ e g u h V b V g p r r - : : ; ; ; % ; 1 1 # . . + # & & 7 : y               ",
"      zX4.7 > & @ O O $ - g g h V V V g i i e - 1 = 2 - ; * * = % # . . & # # & * :                 ",
"      cX^.[ 7 & O & O # $ - e y V V V h g i p - - 2 p p 2 ; 1 1 # . # $ * * * & & :                 ",
"    bX;X^.m z , O & o o o $ - i V V V u h h g f a p p : 2 2 s 4 . # $ % 1 2 4 * * r                 ",
"    xX_.~ A C z d a f s 2 4 % = g u V h h h j j l a a s p 2 2 $ . % % * 1 1 * * r                   ",
"    zXL.m ! ^.OXD.C.D.D.R.^ f - e i i i i g j g l d a a f s p % . % = = 2 0 0 -                     ",
"    lX`.@XzX=XE.C.C.D.D._ ( ! j i i - r - c c c a a d d d d s $ # = = 1 ; : * t                     ",
"  xXlXxXzXOXD.C.` m C.D._ ( W Q f - e e e e i a c z L d ] d 2 X $ ; 2 2 ; ; ;                       ",
"  vXxXzX/.A.C.C.C m ` ~ ~ ! ! R z = y g g l g z x z z d s d = # * ; 2 1 2 1 a                       ",
"  bXlX/.C.m M M m m ` ` F R W W x % e h h h j l x z z ] d s = & ; 1 2 2 ; : k                       ",
"  vX}.D.n n M ` b b m C A Q W R S = = g h h j l x z d } d s * $ ; 2 2 2 0 9 D                       ",
"  cXE.M B n m m b b b V V Q E T l 1 % e g y i k z c d d d s , & ; 0 1 1 2 a                         ",
"  ;XM.n n b n n b b b V Z A Q P x : # - a y i g k d z d ] d 4 $ * : : 1 : ]                         ",
"  }.n N b b n b b V V b C Q Q P z : # % r a [ y z c d d d s % * ; 1 : 9 ' [                         ",
"  `.C N N N b b N V V V C Z x d k p # # : t t k k a d s d s % * 2 2 1 2 r l                         ",
"  D.B N y u V V V V b b Z Z k a p r $ % : r p p a a a p 9 p * 1 2 2 2 2 ' l                         ",
"  A.v N u y u u V b V V V l k s p r * $ : ; ; ; s a ] a ' ; * * 1 2 9 2 t                           ",
"  F N B N y y y h b C V V g a p r : * & : ; ; ; 2 z d s ' 2 % ; ; 2 2 9 ]                           "
};
